<svg xmlns="http://www.w3.org/2000/svg" width="480" height="480" viewBox="0 0 480 480"><rect width="480" height="480" fill="#000000" /><path d="M246 30V224" stroke="#465761" fill="none" stroke-width="2" /><path d="M259 153H450" stroke="#465761" fill="none" stroke-width="2" /><path d="M30 244H450" stroke="#465761" fill="none" stroke-width="2" /><path d="M105 426H375" stroke="#465761" fill="none" stroke-width="2" /><path d="M210 426V465" stroke="#465761" fill="none" stroke-width="2" /><path d="M270 426V465" stroke="#465761" fill="none" stroke-width="2" /><circle cx="144" cy="140" r="73" fill="none" stroke="#131c20" stroke-width="20" /><circle cx="144" cy="140" r="49" fill="none" stroke="#131c20" stroke-width="20" /><circle cx="144" cy="140" r="25" fill="none" stroke="#131c20" stroke-width="20" /><svg viewBox="0 0 24 24" width="32" height="32" fill="none" stroke="#62c7d4" stroke-width="2" stroke-linecap="round" stroke-linejoin="round" x="272" y="183"><path d="M2 4v16" /><path d="M2 8h18a2 2 0 0 1 2 2v10" /><path d="M2 17h20" /><path d="M6 8v9" /></svg><svg viewBox="0 0 24 24" width="32" height="32" fill="none" stroke="#62c7d4" stroke-width="2" stroke-linecap="round" stroke-linejoin="round" x="48" y="280"><circle cx="12" cy="13" r="8" /><path d="M12 9v4l2 2" /><path d="M5 3 2 6" /><path d="m22 6-3-3" /><path d="M6.38 18.7 4 21" /><path d="M17.64 18.67 20 21" /></svg><svg viewBox="0 0 24 24" width="32" height="32" fill="none" stroke="#62c7d4" stroke-width="2" stroke-linecap="round" stroke-linejoin="round" x="48" y="318"><path d="M4 14a1 1 0 0 1-.78-1.63l9.9-10.2a.5.5 0 0 1 .86.46l-1.92 6.02A1 1 0 0 0 13 10h7a1 1 0 0 1 .78 1.63l-9.9 10.2a.5.5 0 0 1-.86-.46l1.92-6.02A1 1 0 0 0 11 14z" /></svg></svg>